<?xml version="1.0" encoding="UTF-8"?>
<svg id="Layer_2" data-name="Layer 2" xmlns="http://www.w3.org/2000/svg" xmlns:xlink="http://www.w3.org/1999/xlink" viewBox="0 0 58.27 58.24">
  <defs>
    <style>
      .cls-1 {
        fill: none;
      }

      .cls-2 {
        fill: #e6f5fc;
      }

      .cls-3 {
        fill: #fff;
      }

      .cls-4 {
        fill: #0e2731;
      }

      .cls-5 {
        clip-path: url(#clippath);
      }
    </style>
    <clipPath id="clippath">
      <circle class="cls-1" cx="29.23" cy="29.19" r="29.04"/>
    </clipPath>
  </defs>
  <g id="Layer_2-2" data-name="Layer 2">
    <g>
      <circle class="cls-2" cx="29.04" cy="29.04" r="29.04"/>
      <g class="cls-5">
        <g>
          <g>
            <path class="cls-3" d="M29.17,24.32c-.52-2.14-1.04-3.05-1.78-4.31-.54-.92-1.43-1.66-2.05-2.61-1.02-1.57-1.22-2.57-1.22-3.53,0-1.42.3-2.35.88-3.3.39-.65,1.35-1.28,2.24-1.14.69.11,1.27.85,2,2.13,0,0,.79,1.4,2.29,3.5.89,1.24,1.69,2.04,3.29,3.64,2.24,2.24,2.16,1.81,3.22,3,.98,1.11.96,1.37,3.93,6.07,1.15,1.82,1.44,2.24,1.93,2.79,1.39,1.56,2.79,2.39,3.57,2.86,5.67,3.37,11.18,6.73,11.29,6.79h0v21.86h0c-3.86-3.58-7.17-6.39-9.57-8.36-1.03-.85-1.71-1.4-9.57-7.57h0c-.68.13-1.75.33-3.07.5-4.49.58-8.15.4-10.22.29-1.96-.11-4.52-.63-4.52-.63h0c-.31-.05-.86-.17-1.37-.34-.11-.04-.44-.13-.63-.28-1.02-.8-1.46-2.13-1.15-3.39.05-.19.1-.4.17-.65h0c-.42-.04-1.26-.19-2.07-.79,0,0,0,0-.01,0-1.06-.78-1.57-2.11-1.28-3.39.06-.25.13-.54.21-.89h0c-.56-.2-1.3-.57-1.93-1.29-.13-.15-.26-.32-.39-.52-.78-1.16-.7-2.69.14-3.8.08-.1.16-.21.25-.33h0c-.32-.27-.85-.78-1.21-1.57-.19-.42-.68-1.49-.29-2.64.38-1.13,1.38-1.67,2-2,1.12-.6,3.05-.77,3.91-.81,1.69-.08,5.27.12,8.45.38.89.07,1.73.23,2.57.32"/>
            <path class="cls-4" d="M29.58,24.21c-.32-1.27-.74-2.48-1.38-3.63-.76-1.39-1.92-2.43-2.73-3.77s-1.13-2.77-.79-4.32c.13-.59.34-1.21.7-1.7.46-.64,1.28-1.18,2.11-.82.52.23.88.95,1.16,1.41,1.14,1.88,2.28,3.79,3.75,5.45s3.1,3.06,4.71,4.54c.86.79,1.47,1.74,2.07,2.72,1.28,2.1,2.48,4.33,4,6.28,1.73,2.23,4.23,3.52,6.6,4.94,2.52,1.51,5.04,3.03,7.56,4.55.28.17.8.36,1.02.61.03.04.15.06.17.1-.26.12-.32.33-.19.64v20.87l.72-.3c-3.85-3.57-7.82-6.99-11.93-10.25-.97-.77-1.94-1.53-2.92-2.3-.72-.56-1.43-1.13-2.15-1.69-.46-.36-.93-.73-1.39-1.09-.27-.21-.61-.62-.95-.71-.52-.13-1.36.21-1.88.29-1.35.22-2.71.37-4.07.47-1.92.14-3.84.16-5.76.09s-3.79-.26-5.67-.61c-.65-.12-1.37-.2-1.97-.48-1.49-.69-1.5-2.39-1.14-3.74.08-.29-.14-.5-.41-.53-.97-.12-1.9-.57-2.48-1.38-.71-1.01-.54-2.04-.26-3.16.06-.24-.08-.44-.29-.52-2.35-.9-3.25-3.26-1.68-5.31.11-.14.06-.4-.07-.51-1.59-1.38-2.2-3.86-.22-5.19,1.27-.85,2.84-1.05,4.33-1.12,3.66-.16,7.4.26,11.02.7.54.07.53-.78,0-.84-2.65-.33-5.29-.56-7.96-.67-1.85-.08-3.72-.13-5.55.27-1.44.31-3.07,1.08-3.71,2.49-.78,1.73.13,3.78,1.48,4.95l-.07-.51c-1.92,2.52-.64,5.47,2.18,6.55l-.29-.52c-.35,1.38-.49,2.67.4,3.9.74,1.03,1.93,1.55,3.15,1.71l-.41-.53c-.41,1.59-.36,3.37,1.09,4.45.94.7,2.42.79,3.55.98,3.81.64,7.77.66,11.62.32,1.08-.1,2.15-.23,3.22-.4.42-.06.91-.24,1.33-.23.62.01,1.08.56,1.58.96,1.46,1.14,2.91,2.29,4.36,3.43,1.15.9,2.29,1.8,3.42,2.73,3.39,2.76,6.68,5.64,9.88,8.61.26.24.72.08.72-.3v-19.38c0-.92.4-2.35-.4-2.96-.75-.57-1.67-1.01-2.47-1.5-1.49-.9-2.99-1.8-4.49-2.7-2.79-1.67-6.1-3.17-8.1-5.84-2.21-2.97-3.56-6.86-6.44-9.3-2.2-1.86-4.28-3.93-5.91-6.3-.61-.89-1.2-1.8-1.75-2.73-.52-.87-1.15-2.12-2.26-2.34-3.07-.62-4,3.97-3.52,6.08.37,1.67,1.47,2.94,2.53,4.22,1.22,1.47,1.93,3.27,2.39,5.11.13.53.95.3.81-.22h0Z"/>
          </g>
          <path class="cls-4" d="M18.37,44.42c.47,1.29,1.83,1.63,3.07,1.7,1.88.1,3.79-.25,5.64-.55.73-.12,1.52-.29,2.07-.83.5-.49.69-1.26.53-1.93-.34-1.49-2.09-2.13-3.41-2.4-1.96-.41-4.03-.49-6.03-.56-.54-.02-.54.82,0,.84,1.49.05,2.98.15,4.46.32,1.23.14,2.75.33,3.69,1.23.4.38.61.88.45,1.43-.21.72-1.03.92-1.67,1.04-1.53.28-3.11.51-4.66.57-1.02.04-2.89.12-3.32-1.08-.18-.51-1-.29-.81.22h0Z"/>
          <g>
            <path class="cls-3" d="M17,41.03c1.76,1.22,7.14.78,10.46.29,1.4-.2,2.11-.58,2.44-1.12.35-.58.2-1.24.19-1.28-.14-.56-.53-.91-.73-1.08-1.08-.93-2.96-1.22-4.85-1.42-1.23-.13-2.82-.26-4.7-.3"/>
            <path class="cls-4" d="M16.79,41.4c1.21.8,2.91.83,4.31.84,1.94.02,3.88-.16,5.8-.41,1.44-.19,3.47-.47,3.64-2.28s-1.74-2.71-3.19-3.08c-2.42-.62-5.06-.69-7.55-.76-.54-.01-.54.83,0,.84,1.84.05,3.68.16,5.5.39,1.3.17,4.11.49,4.4,2.17s-2.28,1.81-3.39,1.95c-1.58.19-3.16.33-4.75.34-1.38,0-3.14.06-4.34-.73-.45-.3-.88.43-.43.73h0Z"/>
          </g>
          <g>
            <path class="cls-3" d="M14.64,36.07c1.85,1.22,7.52.78,11.01.29,1.47-.2,2.22-.58,2.57-1.12.37-.58.21-1.24.2-1.28-.15-.56-.56-.91-.77-1.08-1.14-.93-3.11-1.22-5.11-1.42-1.29-.13-2.97-.26-4.95-.3"/>
            <path class="cls-4" d="M14.43,36.43c1.29.81,3.06.83,4.52.84,2.01.02,4.03-.15,6.02-.4,1.44-.18,3.65-.39,3.89-2.21s-1.84-2.81-3.34-3.17c-2.55-.62-5.32-.69-7.94-.76-.54-.01-.54.83,0,.84,1.94.05,3.89.16,5.82.4.99.12,2,.28,2.94.65.67.27,1.57.77,1.69,1.56.26,1.75-2.58,1.79-3.69,1.92-1.66.19-3.34.32-5.01.33-1.43,0-3.23.06-4.48-.73-.46-.29-.88.44-.43.73h0Z"/>
          </g>
          <g>
            <path class="cls-3" d="M13.74,30.62c1.54,1.15,6.27.73,9.18.28,1.23-.19,1.85-.55,2.14-1.05.31-.54.17-1.17.16-1.21-.12-.53-.47-.86-.64-1.02-.95-.88-2.59-1.15-4.26-1.34-1.08-.12-2.48-.24-4.13-.29"/>
            <path class="cls-4" d="M13.52,30.98c1.07.76,2.63.79,3.89.8,1.69.01,3.38-.16,5.06-.4,1.38-.2,3.14-.55,3.21-2.26.07-1.56-1.45-2.44-2.76-2.81-2.14-.61-4.52-.67-6.73-.74-.54-.02-.54.83,0,.84,1.67.05,3.35.15,5.01.4,1.16.17,3.35.51,3.62,1.96.28,1.52-1.7,1.67-2.73,1.82-1.44.2-2.9.34-4.36.34-1.21,0-2.75.05-3.78-.68-.44-.31-.87.42-.43.73h0Z"/>
          </g>
        </g>
      </g>
    </g>
  </g>
</svg>