<?xml version="1.0" encoding="UTF-8"?>
<svg id="Layer_2" data-name="Layer 2" xmlns="http://www.w3.org/2000/svg" viewBox="0 0 709.54 926.29">
  <defs>
    <style>
      .cls-1, .cls-2 {
        fill: #fff;
      }

      .cls-1, .cls-3, .cls-4, .cls-5 {
        stroke: #0e2731;
        stroke-miterlimit: 10;
        stroke-width: 4px;
      }

      .cls-3 {
        fill: none;
      }

      .cls-6, .cls-5 {
        fill: #449ac1;
      }

      .cls-4 {
        fill: #0e2731;
      }
    </style>
  </defs>
  <g id="Layer_1-2" data-name="Layer 1">
    <g>
      <g>
        <path class="cls-1" d="M29.14,601.03c-2.3,2.73-5.27,4.19-5.27,4.19-4.18,1.53-7.86,1.32-10.82.43-7.88-2.38-9.63-11.91-10.32-15.66-1.57-8.59-1.25-22.56,7.05-42.01,3.91-9.16,18.83-40.02,24.82-38.27,3.66,1.07-2.45,15.59-.83,44.6.53,9.56,2.65,38.09-4.63,46.72Z"/>
        <path class="cls-1" d="M680.4,601.03c2.3,2.73,5.27,4.19,5.27,4.19,4.18,1.53,7.86,1.32,10.82.43,7.88-2.38,9.63-11.91,10.32-15.66,1.57-8.59,1.25-22.56-7.05-42.01-3.91-9.16-18.83-40.02-24.82-38.27-3.66,1.07,2.45,15.59.83,44.6-.53,9.56-2.65,38.09,4.63,46.72Z"/>
        <path class="cls-1" d="M355.86,41.78c16.39,6.21,38.41,15.61,63.07,29.55,15.56,8.8,80.98,46.97,139.13,120.51,68.07,86.07,88.62,173.08,102.78,236.07,13.79,61.32,33.11,148.59,7.35,254.08-11.53,47.22-23.67,96.95-66.19,144.42-56.79,63.4-131.32,82.09-159.46,88.76-35.38,8.39-65.93,9.57-87.25,9.03h-1.05c-21.32.54-51.87-.64-87.25-9.03-28.14-6.67-102.67-25.36-159.46-88.76-42.52-47.47-54.66-97.2-66.19-144.42-25.75-105.49-6.43-192.76,7.35-254.08,14.16-62.99,34.72-150,102.78-236.07,58.15-73.53,123.57-111.71,139.13-120.51,24.66-13.93,46.68-23.34,63.07-29.55"/>
        <g>
          <path class="cls-4" d="M164.64,211.18c2.4-9.18,7.32-23.28,18.15-37.26,11.69-15.1,24.39-22.49,40.27-31.74,16.81-9.79,31.31-14.75,60.31-24.67,4.13-1.41,10.97-3.7,11.2-3.14.57,1.39-41.01,14.69-76.36,40.41-26.85,19.53-43.82,41.66-53.58,56.4"/>
          <path class="cls-4" d="M544.9,211.18c-2.4-9.18-7.32-23.28-18.15-37.26-11.69-15.1-24.39-22.49-40.27-31.74-16.81-9.79-31.31-14.75-60.31-24.67-4.13-1.41-10.97-3.7-11.2-3.14-.57,1.39,41.01,14.69,76.36,40.41,26.85,19.53,43.82,41.66,53.58,56.4"/>
        </g>
        <path class="cls-1" d="M418.23,67.28c-4.3-8.64-9.5-13.99-12.71-17.36l-.6-.63c-8.37-8.78-15.19-18.84-21.11-29.43-5.99-10.71-16.75-17.85-29.03-17.85s-23.04,7.14-29.03,17.85c-5.92,10.59-12.74,20.65-21.11,29.43l-.6.63c-3.21,3.37-8.4,8.71-12.71,17.36-.01.03-.03.05-.04.08-1.84,3.71-2.75,7.82-2.75,11.97v18.84c0,3.03.28,6.06.86,9.04.05.28.07.36.07.36,0,.02,0,.04.01.06,1.05,4.32,5.02,7.3,9.46,7.3h111.68c4.45,0,8.42-2.98,9.46-7.3,0-.02,0-.04.01-.06,0,0,.02-.08.07-.35.58-2.98.86-6.01.86-9.05v-18.84c0-4.15-.91-8.25-2.75-11.97-.01-.03-.03-.05-.04-.08Z"/>
        <g>
          <path class="cls-3" d="M325.22,127.24c0-13.85,0-16.42-.16-32.04-.02-1.75-.12-3.58-.32-5.49-1.06-9.93-4.51-18.03-7.89-23.93"/>
          <path class="cls-3" d="M384.32,127.24c0-13.85,0-16.42.16-32.04.02-1.75.12-3.58.32-5.49,1.06-9.93,4.51-18.03,7.89-23.93"/>
        </g>
        <path class="cls-1" d="M354.78,101.34c15.84,0,37.25,5.34,61.35,13.59,9.6,3.29,44.85,15.93,84.46,46.17,59.4,45.36,89.1,100.12,111.95,143.29,28.86,54.53,42.55,101.49,48.31,123.51,11.69,44.72,35.31,139.57,7.35,254.08-11.53,47.22-23.67,96.95-66.19,144.42-56.79,63.4-131.32,82.09-159.46,88.76-35.38,8.39-65.93,9.57-87.25,9.03h-1.05c-21.32.54-51.87-.64-87.25-9.03-28.14-6.67-102.67-25.36-159.46-88.76-42.52-47.47-54.66-97.2-66.19-144.42-27.96-114.51-4.34-209.36,7.35-254.08,5.76-22.02,19.45-68.98,48.31-123.51,22.85-43.18,52.55-97.94,111.95-143.29,39.62-30.25,74.86-42.89,84.46-46.17,24.1-8.24,45.43-13.59,61.36-13.59"/>
      </g>
      <path class="cls-5" d="M679.45,614.14c-1.94,21.61-5.51,44.31-11.25,67.84-11.53,47.22-23.67,96.95-66.19,144.42-56.79,63.4-131.32,82.09-159.46,88.76-35.38,8.39-65.93,9.57-87.25,9.03h-1.05c-21.32.54-51.87-.64-87.25-9.03-28.14-6.67-102.67-25.36-159.46-88.76-42.52-47.47-54.66-97.2-66.19-144.42-5.75-23.53-9.31-46.23-11.25-67.84l.06.04c51.51-87.81,177.44-149.84,324.62-149.84,147.26,0,273.25,62.1,324.7,149.99"/>
      <g>
        <circle class="cls-6" cx="354.77" cy="227.9" r="24.35"/>
        <circle class="cls-6" cx="354.77" cy="415.98" r="24.35"/>
      </g>
      <circle class="cls-2" cx="354.77" cy="632.52" r="24.35"/>
      <circle class="cls-2" cx="354.77" cy="857.06" r="24.35"/>
      <circle class="cls-6" cx="164.99" cy="284.92" r="24.35"/>
      <circle class="cls-6" cx="124.71" cy="446.73" r="24.35"/>
      <circle class="cls-2" cx="128.18" cy="741.17" r="24.35"/>
      <circle class="cls-2" cx="113.34" cy="594.38" r="24.35"/>
      <circle class="cls-6" cx="544.56" cy="284.92" r="24.35"/>
      <circle class="cls-6" cx="584.83" cy="446.73" r="24.35"/>
      <circle class="cls-2" cx="581.37" cy="741.17" r="24.35"/>
      <circle class="cls-2" cx="596.2" cy="594.38" r="24.35"/>
    </g>
  </g>
</svg>