<?xml version="1.0" encoding="UTF-8"?>
<svg id="Layer_2" data-name="Layer 2" xmlns="http://www.w3.org/2000/svg" viewBox="0 0 234.43 278.58">
  <defs>
    <style>
      .cls-1 {
        fill: #e6f5fc;
      }

      .cls-2 {
        fill: #fff;
      }

      .cls-3 {
        fill: #0e2731;
      }

      .cls-4 {
        fill: #449ac1;
      }
    </style>
  </defs>
  <g id="Layer_2-2" data-name="Layer 2">
    <g>
      <g>
        <g>
          <path class="cls-1" d="M219.54,97.94c-12.27-47.22-70.75-72.9-130.63-57.34C29.03,56.15-9.57,107.04,2.7,154.27c4.75,18.3,16.45,33.36,32.48,44.05l.26.24c4.71,3.06,11.02,7.92,16.99,15.23,2.43,2.98,7.88,10.14,11.89,20.7.88,2.33,1.56,4.46,2.07,6.27.18.62.33,1.21.47,1.76.03.1.05.21.08.31,0,.04.02.07.03.11.03.14.07.27.1.4l-.02-.09c6.8,25.27,32.72,40.38,58.1,33.79,4.19-1.09,8.11-2.7,11.7-4.75.52-.3,1.03-.6,1.53-.91h0s.01,0,.02-.01c.78-.48,1.53-.99,2.27-1.52,5.62-3.69,12.25-7.55,19.89-11.16,7.09-3.36,13.78-5.9,19.83-7.86.96-.27,1.9-.56,2.82-.88.14-.04.28-.08.41-.13v-.02c23.01-8.24,36.33-32.83,30.07-56.94-.41-1.57-.89-3.09-1.44-4.58v-.1c-.67-1.54-1.52-3.71-2.21-6.41-2.05-8.04-1.2-14.98-.71-17.96.74-4.55,2.08-8.64,3.54-12.11.76-1.51,1.48-3.03,2.15-4.56.18-.34.35-.67.53-.99l-.11.03c6.54-15.46,8.31-32.06,4.11-48.24Z"/>
          <g>
            <path class="cls-3" d="M212.56,152.45c-12.85-13.95-31.33-22.62-51.79-22.4-38.32.41-69.05,31.79-68.64,70.11.34,32.49,22.96,59.52,53.19,66.75,4.54-2.76,9.62-5.56,15.25-8.22,7.09-3.36,13.78-5.9,19.83-7.86.96-.27,1.9-.56,2.82-.88.14-.04.28-.08.41-.13v-.02c23.01-8.24,36.33-32.83,30.07-56.94-.41-1.57-.89-3.09-1.44-4.58v-.1c-.67-1.54-1.52-3.71-2.21-6.41-2.05-8.04-1.2-14.98-.71-17.96.69-4.23,1.9-8.05,3.24-11.36Z"/>
            <path class="cls-3" d="M212.86,152.15c-14.55-15.72-35.78-24.06-57.15-22.29-18.28,1.51-35.5,10.37-47.38,24.35-12.04,14.17-17.98,32.85-16.35,51.37,1.66,18.84,11.13,36.5,25.9,48.32,7.31,5.86,15.78,10.23,24.8,12.75.7.2,2.02.8,2.75.66.51-.1,1.1-.64,1.55-.92.74-.44,1.49-.88,2.24-1.31,2.79-1.6,5.62-3.12,8.5-4.55,5.82-2.9,11.81-5.46,17.93-7.65,2.67-.96,5.37-1.83,8.08-2.66.24-.07.33-.29.29-.52v-.02c-.1.17-.2.35-.3.52,13.07-4.73,23.6-14.96,28.66-27.93,2.53-6.5,3.63-13.55,3.16-20.52-.25-3.76-.94-7.5-2.05-11.1-1.23-3.98-2.92-7.71-3.67-11.85-1.61-8.89-.2-17.92,3.14-26.25.2-.5-.61-.72-.81-.22-2.72,6.77-4.19,14-3.78,21.3.24,4.3,1.11,8.58,2.64,12.61,1.3,3.42,2.44,6.84,3.08,10.46,2.47,13.95-1.65,28.58-10.95,39.25-5.29,6.07-12.08,10.69-19.64,13.43-.24.09-.33.28-.29.52v.02c.1-.17.2-.35.3-.52-11.45,3.49-22.52,8.13-32.98,13.96-1.21.68-2.42,1.37-3.61,2.08-.47.28-1.27.96-1.83.97s-1.31-.33-1.85-.48c-2.22-.61-4.42-1.33-6.57-2.16-4.37-1.69-8.57-3.83-12.51-6.37-15.6-10.06-26.7-26.33-30.3-44.55-3.62-18.25.41-37.55,11.04-52.82s26.25-25.12,43.94-28.41c20.56-3.82,42.19,2.04,57.96,15.8,1.92,1.67,3.74,3.46,5.47,5.32.37.4.96-.2.6-.6Z"/>
          </g>
          <g>
            <path class="cls-2" d="M191.46,165.48c-3.2.84-5.92,2.67-8.82,4.25-11.74,6.67-31.04,6.87-42.92.46-1.75-.89-3.41-1.9-5.19-2.73l-.1-.04c-13-5.92-24.71,3.4-29.74,17.06-2.3,6.11-3.08,12.74-3.51,19.2-.09,1.24-.16,2.47-.22,3.71-5.59-4.95-12.43-6.78-17.9-4.06-8.08,4.01-10.09,16.41-4.5,27.69,5.59,11.27,16.66,17.16,24.74,13.17,2.58,12.54,8.53,24.48,17.05,33.84,1.59-.25,3.19-.57,4.78-.99,4.19-1.09,8.11-2.7,11.7-4.75.52-.3,1.03-.6,1.53-.91h0s.01,0,.02-.01c.78-.48,1.53-.99,2.27-1.52,5.62-3.69,12.25-7.55,19.89-11.16,7.09-3.36,13.78-5.9,19.83-7.86.96-.27,1.9-.56,2.82-.88.14-.04.28-.08.41-.13v-.02c23.01-8.24,36.33-32.83,30.07-56.94-.41-1.57-.89-3.09-1.44-4.58v-.1c-.67-1.54-1.52-3.71-2.21-6.41-1.14-4.49-1.38-8.63-1.29-11.93-4.84-4.09-10.85-6.06-17.28-4.35Z"/>
            <path class="cls-3" d="M191.35,165.07c-4.15,1.15-7.58,3.82-11.46,5.58-3.56,1.62-7.39,2.62-11.25,3.2-7.99,1.21-16.52.7-24.16-2.02-3.79-1.35-7.08-3.69-10.79-5.19-3.23-1.31-6.75-1.79-10.2-1.21-6.9,1.16-12.39,6.31-15.92,12.1-5.46,8.95-6.53,19.6-7.02,29.85l.72-.3c-4.43-3.86-10.57-6.7-16.5-4.89-4.88,1.49-8.03,5.82-9.19,10.64-2.69,11.21,3.47,24.42,13.23,30.29,4.44,2.67,9.9,3.73,14.71,1.42l-.62-.25c1.55,7.42,4.21,14.59,7.93,21.19,1.84,3.27,3.93,6.39,6.26,9.33.56.71,1.14,1.41,1.73,2.1.37.43.93,1.37,1.49,1.52.68.18,1.87-.3,2.56-.44,1.1-.23,2.2-.49,3.28-.8,4.38-1.23,8.56-3.08,12.43-5.47l-.51-.07h0c.13.12.35.17.51.07,13.91-9.39,29.09-16.62,45.14-21.51.24-.07.33-.29.29-.52v-.02c-.1.17-.2.35-.3.52,13.29-4.81,23.96-15.31,28.9-28.57,2.48-6.66,3.47-13.86,2.84-20.94-.35-3.96-1.18-7.88-2.49-11.63-1.43-4.1-2.93-8.03-3.48-12.4-.16-1.26-.26-2.54-.31-3.81-.02-.52-.03-1.04-.03-1.56,0-.41.14-1.14.01-1.52-.2-.61-1.29-1.19-1.82-1.56-.98-.7-2.02-1.32-3.1-1.84-4.05-1.96-8.53-2.4-12.89-1.29-.53.13-.3.95.22.81,4.13-1.05,8.39-.65,12.24,1.21.84.41,1.65.87,2.43,1.39.87.57,2.07,1.12,2.06,2.26-.02,1.98.1,3.96.34,5.93.51,4.03,1.75,7.66,3.12,11.44,1.26,3.48,2.19,7.12,2.66,10.81,1.72,13.53-2.64,27.41-11.74,37.56-5.22,5.82-11.84,10.25-19.19,12.91-.24.09-.33.28-.29.52v.02c.1-.17.2-.35.3-.52-16.12,4.92-31.38,12.17-45.34,21.6l.51.07h0c-.14-.13-.35-.17-.51-.07-3.29,2.03-6.79,3.67-10.47,4.85-1.89.61-3.81,1.1-5.76,1.47-.4.08-.98.29-1.37.15-.36-.13-.62-.56-.87-.84-.6-.68-1.18-1.38-1.74-2.08-4.57-5.69-8.22-12.13-10.84-18.93-1.44-3.75-2.57-7.61-3.39-11.54-.06-.29-.39-.36-.62-.25-9.32,4.46-19.13-3.95-23.43-11.63-2.78-4.98-4.33-10.84-3.72-16.55.49-4.62,2.6-9.31,6.79-11.67,6.04-3.39,13.13-.46,17.92,3.72.28.24.7.08.72-.3.45-9.38,1.34-19.07,5.81-27.51,3.31-6.24,8.72-12.03,15.89-13.51,3.69-.76,7.53-.19,10.96,1.34s6.61,3.66,10.21,4.94c7.17,2.56,15.1,3.15,22.64,2.29,4.12-.47,8.21-1.4,12.06-2.96,4.33-1.77,8.08-4.82,12.62-6.08.52-.15.3-.96-.22-.81Z"/>
          </g>
          <g>
            <path class="cls-2" d="M82.42,216.99c.77-1.81,2.02-3.26,3.7-4.09,4.86-2.41,11.53,1.13,14.9,7.92"/>
            <path class="cls-3" d="M82.78,217.2c1.67-3.78,5.42-5.45,9.32-4.2s6.77,4.51,8.55,8.03c.24.48.97.06.73-.43-1.94-3.83-5.22-7.38-9.48-8.54s-8.11.79-9.85,4.72c-.22.49.51.92.73.43h0Z"/>
          </g>
          <g>
            <g>
              <g>
                <ellipse class="cls-3" cx="196.49" cy="219.95" rx="5.62" ry="8.89" transform="translate(-2.31 2.09) rotate(-.61)"/>
                <path class="cls-3" d="M190.45,220.01c.07,3.13,1.08,7.16,4.1,8.74,2.71,1.42,5.35-.44,6.63-2.86,1.73-3.29,1.79-7.59.35-10.99-1.03-2.44-3.36-4.97-6.27-4.09-3.66,1.1-4.81,5.88-4.81,9.2,0,.54.84.54.84,0,0-2.77.74-6.33,3.26-7.94s4.77.33,5.9,2.49c1.48,2.85,1.62,6.49.6,9.51-.75,2.24-2.73,5.05-5.47,4.2-3.22-.99-4.23-5.36-4.29-8.26-.01-.54-.85-.54-.84,0Z"/>
              </g>
              <path class="cls-3" d="M207.15,197.77c-6.63-3.59-13.97-5.64-21.5-6-.54-.03-.54.82,0,.84,7.38.36,14.58,2.37,21.07,5.89.48.26.9-.47.43-.73h0Z"/>
              <g>
                <ellipse class="cls-3" cx="126.96" cy="220.68" rx="5.62" ry="8.89" transform="translate(-2.33 1.35) rotate(-.61)"/>
                <path class="cls-3" d="M132.16,220.62c0,2.77-.74,6.33-3.26,7.94s-4.77-.33-5.9-2.49c-1.48-2.85-1.62-6.49-.6-9.51.75-2.24,2.73-5.05,5.47-4.2,3.22.99,4.23,5.36,4.29,8.26.01.54.85.54.84,0-.07-3.13-1.08-7.16-4.1-8.74-2.71-1.42-5.35.44-6.63,2.86-1.73,3.29-1.79,7.59-.35,10.99,1.03,2.44,3.36,4.97,6.27,4.09,3.66-1.1,4.81-5.88,4.81-9.2,0-.54-.84-.54-.84,0Z"/>
              </g>
              <path class="cls-3" d="M116.27,199.46c6.42-3.65,13.57-5.82,20.94-6.34.54-.04.54-.88,0-.84-7.52.53-14.82,2.73-21.37,6.45-.47.27-.05,1,.43.73h0Z"/>
            </g>
            <g>
              <path class="cls-2" d="M162.09,246.07c-5-.21-7.41-1.97-8.57-3.15-5.74-5.82-2.77-20.6,8.07-35.28,11.15,14.45,14.43,29.16,8.81,35.1-1.14,1.21-3.51,3.02-8.5,3.33"/>
              <path class="cls-3" d="M162.09,245.65c-2.8-.14-5.77-.75-7.91-2.68-1.57-1.41-2.43-3.37-2.83-5.41-1.17-6.05,1.07-12.63,3.59-18.05,1.92-4.12,4.32-8,7.01-11.66h-.73c4.57,5.96,8.55,12.65,10.48,19.96,1.19,4.53,1.95,10.64-1.45,14.47-2.1,2.36-5.33,3.15-8.36,3.37-.54.04-.54.88,0,.84,5.27-.38,9.92-2.69,11.21-8.14,1.42-6.01-.76-12.61-3.24-18.03-2.11-4.6-4.84-8.89-7.92-12.9-.2-.26-.53-.27-.73,0-4.77,6.5-8.92,13.92-10.47,21.91-.9,4.65-1.05,10.59,2.7,14.11,2.32,2.18,5.55,2.89,8.64,3.04.54.03.54-.82,0-.84h0Z"/>
            </g>
          </g>
        </g>
        <g>
          <g>
            <circle class="cls-2" cx="80.76" cy="9.22" r="8.8"/>
            <path class="cls-3" d="M88.87,7.12c.83,3.38-.45,7-3.34,8.99s-6.73,1.96-9.59-.03-4.21-5.75-3.25-9.14,4.07-5.91,7.61-6.09c3.98-.21,7.52,2.46,8.56,6.27.14.52.96.3.81-.22-1.01-3.7-4.16-6.44-7.99-6.85s-7.69,1.78-9.3,5.3-.85,7.76,1.91,10.46,6.97,3.37,10.45,1.73c3.98-1.88,5.97-6.42,4.93-10.64-.13-.53-.94-.3-.81.22Z"/>
          </g>
          <g>
            <g>
              <path class="cls-2" d="M149.71,55.36h0c-.29-.09-.51-.21-.82-.31-.46-.17-.92-.33-1.39-.49-2.87-1.28-6.71-2.98-10.22-6.13-5.44-4.88-6.83-9.67-11.39-17.22-1.86-3.08-4.58-7.17-8.45-11.78-1.31-1.76-2.77-3.39-4.36-4.86-.04-.04-.08-.09-.12-.13h-.02c-8.58-7.86-20.85-11.35-32.96-8.21-12.11,3.14-21.12,12.17-24.79,23.21h-.04c-.04.17-.08.33-.12.49-.59,1.86-1.03,3.78-1.3,5.73-1.19,6.05-1.59,11.07-1.71,14.73-.31,8.81.82,13.68-1.57,20.59-1.63,4.73-4.17,8.3-6.32,10.76-.1.11-.19.22-.28.32-.34.38-.58.68-.87,1.02h0c-6.65,8.02-9.59,16.57-7.54,24.47,5.09,19.59,38.93,27.75,75.59,18.22,36.66-9.52,62.26-33.12,57.17-52.71-2.05-7.9-8.79-13.94-18.49-17.71Z"/>
              <path class="cls-3" d="M149.82,54.95c-6.91-2.46-13.13-6.35-17.16-12.62-1.86-2.89-3.35-6.01-5.05-9.01s-3.6-5.98-5.66-8.8c-1.41-1.94-2.94-3.78-4.42-5.66-1.33-1.69-2.81-3.16-4.28-4.72-.1-.11-.27-.15-.41-.11.29-.07-1-1.1-1.1-1.19-.33-.27-.67-.54-1.02-.8-1.05-.8-2.14-1.54-3.27-2.22-2.06-1.24-4.26-2.28-6.52-3.09-4.71-1.68-9.78-2.36-14.76-1.97-9.22.72-17.99,5.04-24.13,11.97-1.58,1.78-2.98,3.72-4.18,5.77-.65,1.11-1.24,2.26-1.76,3.44-.21.46-.4.93-.59,1.4-.08.19-.7,1.76-.47,1.7-.14.04-.26.15-.29.29-1.38,5.42-2.39,10.89-2.87,16.47-.43,5.03-.23,10.04-.27,15.07-.05,5.29-1.17,10.3-3.78,14.94s-6.51,8.15-9.19,12.67c-4.54,7.65-5.99,17.07-1.12,24.91,3.75,6.04,10.14,9.93,16.65,12.41,8.78,3.34,18.37,4.44,27.71,4.37,11.23-.08,22.45-1.92,33.22-5.08,10.02-2.94,19.75-7.07,28.61-12.63,7.2-4.52,14.01-10.04,19.07-16.93,3.88-5.29,6.8-11.69,6.48-18.38-.4-8.23-5.78-14.8-12.63-18.92-2.16-1.3-4.45-2.37-6.8-3.29-.51-.2-.72.62-.22.81,6.24,2.45,12.38,6.22,15.93,12.08,2.56,4.22,3.42,9.21,2.56,14.06-1.85,10.45-10.01,18.98-18.13,25.2-11.35,8.7-24.85,14.53-38.63,18.16-14.45,3.8-29.92,5.4-44.74,2.94-10.23-1.69-21.92-5.57-27.97-14.62-3.32-4.96-4.16-11.02-2.66-16.78,1.01-3.87,2.91-7.47,5.22-10.72,1.97-2.77,4.39-5.17,6.25-8.03,1.96-3.01,3.45-6.37,4.24-9.87.68-2.99.78-6.04.75-9.1-.07-7.31.1-14.46,1.39-21.68.36-2.04.68-4.08,1.23-6.08.13-.47.29-.94.41-1.42.08-.3-.11.12-.02-.15.19-.6.51-1.27.75-1.88,1.17-3.02,2.78-5.88,4.73-8.47,4.08-5.41,9.74-9.58,16.12-11.85,7.11-2.54,14.93-2.75,22.15-.53,3.5,1.07,6.82,2.7,9.82,4.79,1.33.93,2.71,2,3.92,3.03.04.04.11.11-.02,0-.27-.24.18.31.18.3.31.38.74.71,1.08,1.07.71.73,1.38,1.49,2.02,2.28,4.72,5.83,8.89,11.82,12.44,18.43,1.48,2.75,2.93,5.53,4.84,8.01,2.12,2.75,4.74,5.06,7.7,6.88,2.65,1.63,5.5,2.89,8.43,3.93.51.18.73-.63.22-.81Z"/>
            </g>
            <g>
              <path class="cls-2" d="M168.54,80.8c-4.39-16.89-36.96-23.04-72.76-13.75-35.8,9.3-61.26,30.53-56.87,47.42,0,0,0,0,0,0,.06.24.18.47.33.67,10.9,13.95,40.3,18.81,71.79,10.63,31.49-8.18,54.81-26.74,57.54-44.23.04-.25.03-.5-.03-.74,0,0,0,0,0,0Z"/>
              <path class="cls-3" d="M168.95,80.69c-1.99-7.44-8.91-11.94-15.74-14.49-10.16-3.79-21.48-4.35-32.19-3.68-13.28.83-26.48,3.77-38.94,8.4-10.56,3.92-20.85,9.13-29.6,16.29-6.09,4.98-12.24,11.5-14.02,19.42-.63,2.8-1.06,6.95.9,9.31,2.71,3.29,6.27,5.82,10.04,7.75,9.6,4.92,20.79,6.45,31.46,6.48,13.39.04,26.83-2.43,39.49-6.75,11.11-3.79,21.86-9.1,31.1-16.41,6.96-5.51,13.54-12.5,16.47-21.05.49-1.44,1.44-3.75,1.04-5.28-.14-.52-.95-.3-.81.22.21.82-.26,2.11-.47,2.91-.23.89-.51,1.77-.84,2.64-.7,1.88-1.6,3.68-2.63,5.4-2.31,3.85-5.27,7.29-8.53,10.38-7.87,7.47-17.47,13.06-27.42,17.27-12.08,5.12-25.08,8.36-38.16,9.44-11.12.92-22.68.37-33.35-3.13-4.3-1.41-8.48-3.35-12.12-6.06-1.62-1.21-3.12-2.58-4.43-4.12-1.17-1.37-1.34-3.12-1.35-4.88-.08-7.46,4.86-14.11,9.93-19.11,7.39-7.29,16.61-12.67,26.04-16.87,11.66-5.2,24.16-8.7,36.81-10.47,11.26-1.57,23.02-1.86,34.17.6,7.51,1.66,16.06,4.81,20.41,11.6.87,1.36,1.52,2.84,1.94,4.4.14.52.95.3.81-.22Z"/>
            </g>
          </g>
          <g>
            <ellipse class="cls-4" cx="104.2" cy="99.46" rx="55.71" ry="22.2" transform="translate(-21.66 29.39) rotate(-14.56)"/>
            <path class="cls-3" d="M157.72,85.57c1.4,5.61-2.78,10.92-6.55,14.56-6.25,6.02-14.16,10.32-22.06,13.77-10.23,4.47-21.12,7.56-32.14,9.33-9.7,1.56-19.88,2.23-29.61.52-5.71-1-13.24-3.03-16.06-8.71-2.55-5.14.78-10.7,4.22-14.48,5.58-6.14,13.09-10.51,20.51-14.04,9.94-4.72,20.59-8.02,31.38-10.1,9.91-1.91,20.23-2.87,30.29-1.71,6.25.72,14.3,2.27,18.39,7.6.75.98,1.3,2.08,1.62,3.27.14.52.96.3.81-.22-1.62-5.98-8.19-8.79-13.65-10.2-9.37-2.42-19.45-2.1-28.98-.92-11.61,1.43-23.08,4.39-33.93,8.77-8.58,3.47-17.13,7.85-24.08,14.04-4.1,3.65-8.75,8.91-8.3,14.83s6.08,9.35,11.19,11.09c8.7,2.97,18.42,2.97,27.47,2.19,11.68-1.01,23.26-3.69,34.26-7.71,9.09-3.32,18.07-7.6,25.69-13.62,4.62-3.65,9.89-8.72,10.57-14.93.13-1.19.04-2.38-.24-3.54-.13-.53-.94-.3-.81.22Z"/>
          </g>
          <g>
            <path class="cls-2" d="M132.44,136.13c-1.27.61-2.54,1.21-3.82,1.82h0s-5.52-4.72-5.81-4.95c-22.34-17.83-39.06-16.51-49.59-33.12-2.38-3.76-3.85-7.28-4.75-9.89.53-.3,1.08-.6,1.63-.9.55-.3,1.09-.58,1.63-.86.92,2.5,2.32,5.68,4.46,9.06,10.53,16.6,27.25,15.29,49.59,33.12,2.6,2.08,4.89,4.1,6.66,5.72Z"/>
            <path class="cls-3" d="M132.23,135.77c-1.27.61-2.54,1.21-3.82,1.82l.51.07c-2.31-1.97-4.58-4-6.97-5.86-5.21-4.04-10.79-7.54-16.63-10.58-8.8-4.58-18.81-7.87-26.16-14.77-4.79-4.5-8.12-10.38-10.28-16.55l-.19.48c1.08-.6,2.17-1.19,3.27-1.76l-.62-.25c1.83,4.94,4.38,9.7,7.87,13.68,2.71,3.1,5.99,5.63,9.52,7.74,3.88,2.32,8.02,4.18,12.1,6.11,4.75,2.25,9.44,4.6,13.94,7.34,6.24,3.8,12.01,8.28,17.39,13.22.4.37,1-.23.6-.6-8.7-7.99-18.38-14.36-29-19.49-7.73-3.74-16.06-6.99-22.26-13.12-4.24-4.2-7.27-9.52-9.33-15.09-.1-.26-.36-.39-.62-.25-1.1.57-2.19,1.16-3.27,1.76-.15.09-.25.3-.19.48,1.9,5.44,4.69,10.68,8.58,14.97,3.18,3.5,7.07,6.2,11.19,8.46,4.49,2.45,9.2,4.48,13.78,6.74,5.83,2.87,11.48,6.09,16.77,9.89,3.48,2.5,6.69,5.3,9.94,8.08.15.13.33.15.51.07,1.27-.61,2.54-1.21,3.82-1.82.49-.23.06-.96-.43-.73Z"/>
          </g>
          <g>
            <path class="cls-2" d="M80.41,84.09c.09.47.18.95.31,1.42,2.67,10.28,13.16,16.44,23.44,13.77,10.28-2.67,16.44-13.16,13.77-23.44-.12-.47-.27-.94-.42-1.39-6,.66-12.37,1.82-18.89,3.51-6.52,1.69-12.65,3.78-18.21,6.12Z"/>
            <path class="cls-3" d="M80,84.2c1.61,8.45,8.54,15.01,17.12,16s16.89-3.93,20.26-11.79c1.92-4.47,2.06-9.46.53-14.07-.05-.16-.22-.33-.41-.31-12.76,1.42-25.37,4.68-37.21,9.65-.49.21-.28,1.02.22.81,11.77-4.94,24.3-8.21,36.99-9.62l-.41-.31c2.6,7.84-.1,16.67-6.9,21.46-6.63,4.67-15.71,4.54-22.19-.33-3.81-2.86-6.3-7.06-7.19-11.72-.1-.53-.91-.31-.81.22Z"/>
          </g>
        </g>
      </g>
      <g>
        <g>
          <path class="cls-2" d="M67.42,178.6l-.04-.02c.3-1.81-4.89-5.76-11.96-9.04s-13.44-4.69-14.63-3.29l-.04-.02-5.98,12.89.04.02s-.08.07-.1.12c-.51,1.1,5.04,4.76,12.4,8.17,7.36,3.41,13.74,5.29,14.25,4.19.02-.05.03-.1.03-.15l.05.02,5.98-12.89Z"/>
          <path class="cls-3" d="M67.63,178.23c.3.14.17.32.15-.07,0-.16-.08-.31-.13-.46-.12-.31-.3-.59-.5-.86-.64-.87-1.47-1.59-2.31-2.25-2.73-2.16-5.85-3.86-9-5.33s-6.65-2.88-10.17-3.61c-1.43-.3-4-.94-5.19.29l.51-.07-.04-.02c-.19-.09-.47-.07-.58.15-1.99,4.3-3.99,8.59-5.98,12.89-.09.19-.07.47.15.58l.04.02-.09-.66c-1,1.23,1.44,2.74,2.24,3.32,3.07,2.21,6.51,3.94,9.93,5.54,1.34.63,14.54,6.93,15.12,3.89l-.62.25.05.02c.19.09.47.07.58-.15,1.99-4.3,3.99-8.59,5.98-12.89.23-.49-.5-.92-.73-.43-1.99,4.3-3.99,8.59-5.98,12.89l.58-.15-.05-.02c-.23-.1-.56-.04-.62.25-.28,1.47-13.32-4.13-14.1-4.49-.83-.39-12.58-6.44-11.78-7.43.15-.19.18-.54-.09-.66l-.04-.02.15.58c1.99-4.3,3.99-8.59,5.98-12.89l-.58.15.04.02c.17.08.37.08.51-.07.48-.5,1.39-.43,2.02-.4,1.19.05,2.38.32,3.54.61,3.17.81,6.25,2.04,9.2,3.45,2.67,1.28,5.3,2.72,7.7,4.47,1.01.74,3.57,2.38,3.41,3.91-.01.13.09.31.21.36l.04.02c.49.23.92-.5.43-.73Z"/>
        </g>
        <g>
          <path class="cls-2" d="M56.57,191.01s0-.03,0-.05h0s0,0,0,0c-.09-.57-3.91-2.75-8.77-5.01-4.86-2.26-9-3.76-9.49-3.46h-.02s-1.99,4.29-1.99,4.29l18.29,8.48,1.95-4.2s.03-.02.04-.04Z"/>
          <path class="cls-3" d="M56.99,191.01l-.05.15c.09-.19.07-.47-.15-.58.13.06.27.3.11.05-.04-.06-.08-.12-.13-.17-.14-.15-.3-.28-.46-.4-.59-.46-1.24-.84-1.88-1.22-2.13-1.24-4.35-2.32-6.59-3.36s-4.33-1.94-6.55-2.74c-.83-.3-2.28-1.03-3.18-.64h.43-.02c-.19-.1-.47-.08-.58.14-.66,1.43-1.33,2.86-1.99,4.3-.09.19-.07.47.15.58,5.34,2.48,10.68,4.95,16.02,7.43.76.35,1.51.7,2.27,1.05.19.09.47.07.58-.15.32-.7.65-1.4.97-2.1.26-.56.62-1.72.95-2.05.37-.39-.22-.99-.6-.6-.48.5-.71,1.43-.99,2.05-.35.76-.7,1.52-1.06,2.28l.58-.15c-5.34-2.48-10.68-4.95-16.02-7.43-.76-.35-1.51-.7-2.27-1.05l.15.58c.66-1.43,1.33-2.86,1.99-4.3l-.58.15c.31.14.48.02.83.08.69.12,1.37.38,2.02.61,2.27.8,4.48,1.77,6.66,2.78s4.17,1.99,6.18,3.14c.66.38,1.33.76,1.94,1.21.21.16.45.56.66.66l-.15-.58c-.04.09-.05.17-.07.27-.06.54.79.53.84,0Z"/>
        </g>
        <g>
          <path class="cls-2" d="M46.62,188.49c-8.63-4-16.02-6.4-16.51-5.35L.99,245.91c-1.2,2.59-.52,5.56,1.47,7.4,2,2.24,5.93,4.93,10.76,7.18,4.84,2.24,9.43,3.51,12.43,3.58,2.69.34,5.4-1.07,6.6-3.65l29.12-62.77c.49-1.05-6.12-5.14-14.75-9.15Z"/>
          <path class="cls-3" d="M46.84,188.12c-3.36-1.55-6.78-3.02-10.28-4.24-1.73-.6-4.08-1.65-5.97-1.41-1.02.13-1.29,1.42-1.66,2.23l-7.56,16.29c-3.61,7.78-7.22,15.56-10.82,23.33-2.81,6.05-5.61,12.1-8.42,18.15-.49,1.06-1,2.12-1.48,3.19-2.51,5.63,2.88,9.72,7.11,12.34,3.32,2.06,6.92,3.74,10.64,4.97,2.76.91,6.12,1.91,9.07,1.47s4.51-2.43,5.64-4.86l6.92-14.91c3.58-7.73,7.17-15.46,10.75-23.18,2.97-6.41,5.95-12.82,8.92-19.23.65-1.4,1.36-2.78,1.95-4.2.18-.44.23-.76-.05-1.2-.99-1.58-3.29-2.68-4.81-3.59-3.2-1.91-6.55-3.58-9.93-5.16-.49-.23-.92.5-.43.73,3.33,1.55,6.62,3.2,9.78,5.07,1.08.64,2.14,1.3,3.15,2.04.45.33,1.44.92,1.61,1.5.04.14.03-.15,0,.09-.02.15-.16.34-.22.47l-.84,1.8-7.51,16.19c-3.46,7.46-6.92,14.92-10.38,22.38-2.75,5.93-5.5,11.86-8.25,17.79-.59,1.27-1.17,2.54-1.77,3.81-2.46,5.19-8.56,3.71-12.96,2.31-3.79-1.21-7.47-2.92-10.85-5.02-2.39-1.48-5.48-3.46-6.75-6.08-1.15-2.38-.34-4.49.65-6.64,2.32-5,4.64-9.99,6.95-14.99,3.44-7.42,6.88-14.83,10.32-22.25,2.9-6.24,5.79-12.48,8.69-18.73l2.17-4.67c.07-.16.22-.54.29-.58.47-.29,1.64.13,2.12.24,1.26.3,2.49.7,3.71,1.12,3.44,1.19,6.78,2.63,10.08,4.15.49.23.92-.5.43-.73Z"/>
        </g>
        <g>
          <path class="cls-4" d="M42.84,196.64c-8.63-4-15.93-6.6-16.31-5.79l-22.42,48.32c-.92,1.99-.01,4.46,2.06,6.12,2.11,1.99,6.12,4.52,10.95,6.76s9.35,3.67,12.24,4c2.61.51,5.08-.39,6.01-2.38l22.42-48.32c.37-.81-6.32-4.71-14.95-8.71Z"/>
          <path class="cls-3" d="M43.05,196.28c-4.71-2.18-9.65-4.61-14.73-5.79-.66-.15-1.65-.47-2.16.15-.15.18-.23.5-.33.71l-5.7,12.29c-5.17,11.15-10.34,22.29-15.51,33.44-.47,1.01-1.13,2.11-1.26,3.23-.27,2.31,1.17,4.14,2.81,5.57,1.9,1.65,4.03,3.01,6.22,4.25,5.07,2.85,10.78,5.44,16.58,6.31,2.87.43,5.62-.14,6.94-2.94,4.78-10.13,9.43-20.32,14.14-30.48,2.32-5,4.64-10.01,6.96-15.01.36-.77.92-1.61,1.13-2.44s-.61-1.33-1.19-1.77c-1.72-1.29-3.65-2.33-5.54-3.35-2.74-1.48-5.54-2.85-8.37-4.17-.49-.23-.92.5-.43.73,4.6,2.14,9.44,4.31,13.59,7.28.35.25.95.6,1.15,1,.04.08.05-.3,0-.02-.07.35-.35.75-.5,1.07l-5.76,12.42c-4.96,10.7-9.93,21.41-14.89,32.11-.4.86-.77,1.73-1.19,2.58-1.1,2.17-3.46,2.51-5.65,2.2-2.66-.38-5.22-1.18-7.73-2.13-5.32-2.01-10.76-4.65-15.07-8.42-1.65-1.45-3.01-3.49-2.08-5.74.11-.27.25-.54.37-.8,4.59-9.9,9.19-19.81,13.78-29.71,2.26-4.87,4.52-9.74,6.77-14.6l.95-2.05c.13-.28.25-.78.47-1.01.1-.11.06-.08-.03-.04.34-.17,1.15.13,1.47.21,2,.49,3.94,1.25,5.85,2,2.87,1.13,5.69,2.36,8.49,3.66.49.23.92-.5.43-.73Z"/>
        </g>
      </g>
      <g>
        <g>
          <path class="cls-2" d="M210.89,120.6l-13.63-6.32-3.45,7.44h.01s0,0,0,.01c-.45.97,2.23,3.16,5.99,4.91,3.76,1.74,7.17,2.37,7.62,1.41,0,0,0,0,0,0h.01s3.45-7.44,3.45-7.44Z"/>
          <path class="cls-3" d="M211.11,120.24c-3.96-1.84-7.93-3.68-11.89-5.52-.58-.27-1.16-.54-1.74-.81-.19-.09-.47-.07-.58.15-1.15,2.48-2.3,4.96-3.45,7.44-.09.19-.07.47.15.58h.01c-.05-.19-.1-.38-.15-.57-.49.83.56,1.85,1.09,2.34,1.42,1.3,3.17,2.26,4.91,3.08,1.84.86,3.81,1.65,5.83,1.91.76.1,2.22.26,2.55-.7l-.62.25h.01c.19.09.47.08.58-.15,1.15-2.48,2.3-4.96,3.45-7.44.23-.49-.5-.92-.73-.43-1.15,2.48-2.3,4.96-3.45,7.44l.58-.15h-.01c-.26-.13-.52-.03-.62.25-.16.45-2.27-.01-2.63-.1-1.66-.38-3.27-1.02-4.8-1.76-1.34-.65-2.66-1.39-3.84-2.3-.28-.22-1.82-1.41-1.57-1.83.11-.18.06-.48-.15-.58h-.01c.05.19.1.38.15.57,1.15-2.48,2.3-4.96,3.45-7.44l-.58.15c3.96,1.84,7.93,3.68,11.89,5.52.58.27,1.16.54,1.74.81.49.23.92-.5.43-.73Z"/>
        </g>
        <g>
          <path class="cls-4" d="M210.93,120.76l21.64-39.11-19.57-9.08-15.89,41.79h.02s-.04.04-.05.06c-.22.48,2.69,2.31,6.5,4.08,3.81,1.77,7.09,2.81,7.31,2.33.01-.02.01-.05,0-.07h.02Z"/>
          <path class="cls-3" d="M211.29,120.97c2.44-4.41,4.88-8.82,7.32-13.23,3.89-7.02,7.77-14.05,11.66-21.07.89-1.61,1.78-3.21,2.67-4.82.1-.18.06-.48-.15-.58-5.69-2.64-11.39-5.28-17.08-7.92-.83-.38-1.66-.77-2.49-1.15-.26-.12-.52-.02-.62.25-1.79,4.71-3.58,9.42-5.37,14.13l-8.56,22.51c-.65,1.72-1.3,3.43-1.96,5.15-.06.16.04.4.19.48h.02c-.03-.21-.06-.43-.09-.65-1.31,1.42,6.05,4.57,6.75,4.9.81.37,7.5,3.73,7.74,1.79l-.63.36h.02c.49.24.92-.49.43-.72h-.02c-.31-.15-.59.03-.63.36.05-.45.12-.1-.27-.26-.17-.07-.38-.08-.55-.12-.54-.13-1.08-.31-1.6-.49-1.53-.53-3.02-1.17-4.48-1.86-1.35-.63-2.69-1.31-3.97-2.07-.44-.26-.89-.53-1.31-.83-.19-.13-.4-.37-.6-.48-.32-.16.02-.3-.27,0,.17-.18.17-.54-.09-.66h-.02c.06.15.13.31.19.47,1.79-4.71,3.58-9.42,5.37-14.13,2.85-7.5,5.7-15,8.56-22.51.65-1.72,1.3-3.43,1.96-5.15l-.62.25c5.69,2.64,11.39,5.28,17.08,7.92.83.38,1.66.77,2.49,1.15l-.15-.58c-2.44,4.41-4.88,8.82-7.32,13.23-3.89,7.02-7.77,14.05-11.66,21.07-.89,1.61-1.78,3.21-2.67,4.82-.26.48.46.9.73.43Z"/>
        </g>
        <g>
          <rect class="cls-4" x="222.2" y="64.8" width="1.85" height="23.16" transform="translate(59.94 246.64) rotate(-65.11)"/>
          <path class="cls-3" d="M233.45,81.73c-6.12-2.84-12.24-5.68-18.36-8.52-.88-.41-1.76-.82-2.64-1.23l.15.58.78-1.68-.58.15c6.12,2.84,12.24,5.68,18.36,8.52.88.41,1.76.82,2.64,1.23l-.15-.58-.78,1.68c-.23.49.5.92.73.43l.78-1.68c.09-.19.07-.47-.15-.58-6.12-2.84-12.24-5.68-18.36-8.52-.88-.41-1.76-.82-2.64-1.23-.19-.09-.47-.07-.58.15l-.78,1.68c-.09.19-.07.47.15.58,6.12,2.84,12.24,5.68,18.36,8.52.88.41,1.76.82,2.64,1.23.49.23.92-.5.43-.73Z"/>
        </g>
      </g>
      <g>
        <g>
          <rect class="cls-2" x="11.35" y="133.81" width="45.14" height="20.62" rx="10.31" ry="10.31"/>
          <path class="cls-3" d="M46.17,154.01h-16.64c-2.52,0-5.04,0-7.55,0-4.55-.02-8.67-2.82-9.87-7.31-1.44-5.4,2-11.06,7.46-12.24,2.07-.45,4.39-.22,6.49-.22h19.31c4.61,0,8.85,2.37,10.26,7,1.93,6.33-2.93,12.68-9.46,12.79-.54,0-.54.85,0,.84,5.31-.09,9.93-3.98,10.64-9.31s-2.54-10.19-7.52-11.7c-2.4-.73-5.14-.46-7.62-.46h-11.9c-2.66,0-5.31-.03-7.97,0-4.62.04-8.8,2.87-10.31,7.3-1.71,5.02.67,10.73,5.42,13.06,2.59,1.27,5.33,1.11,8.12,1.11,6.88,0,13.76.07,20.64,0,.17,0,.33,0,.5,0,.54,0,.54-.84,0-.84Z"/>
        </g>
        <g>
          <path class="cls-3" d="M33.89,133.81h12.28c5.69,0,10.31,4.62,10.31,10.31h0c0,5.69-4.62,10.31-10.31,10.31h-12.27"/>
          <path class="cls-3" d="M33.89,134.23h8.34c3.56,0,7.07-.25,10.06,2.12,4.36,3.44,5.01,10.02,1.37,14.23-1.8,2.08-4.42,3.34-7.18,3.43-.98.03-1.97,0-2.95,0h-9.64c-.54,0-.54.84,0,.84h9.25c1.16,0,2.33.04,3.49-.01,2.57-.12,5.04-1.16,6.91-2.93,3.89-3.68,4.44-9.9,1.24-14.19-1.52-2.03-3.73-3.5-6.2-4.06-1.38-.31-2.77-.27-4.17-.27h-10.53c-.54,0-.54.84,0,.84h0Z"/>
        </g>
      </g>
      <g>
        <g>
          <g>
            <path class="cls-3" d="M212.32,34.86c.7-.69,1.46-1.37,1.6-2.46.1-.76-.15-1.32.09-2.43.13-.62.34-1.05.49-1.35,2.56-5.31,3.11-6.3,3.11-6.3.59-1.06,1.5-2.73,2.65-4.86h0c.1-.16.18-.32.26-.5,1.18-2.54.07-5.56-2.47-6.74-2.54-1.18-5.56-.07-6.74,2.47-.08.17-.15.35-.21.52h0c-.88,2.25-1.56,4.03-1.99,5.16,0,0-.4,1.06-2.8,6.44-.14.31-.34.75-.72,1.25-.7.91-1.29,1.08-1.8,1.64-.74.81-.76,1.83-.84,2.81"/>
            <path class="cls-3" d="M212.62,35.16c.59-.58,1.23-1.18,1.53-1.97.39-1.01.05-2.06.27-3.1.26-1.25,1.01-2.43,1.56-3.56.38-.77.76-1.55,1.14-2.32,1.1-2.21,2.33-4.35,3.5-6.53.1-.19.06-.48-.15-.58h0c.05.19.1.38.15.57,1.62-2.84.55-6.55-2.51-7.88s-6.32.31-7.42,3.31l.62-.25h0c-.27-.13-.51-.02-.62.25-.9,2.3-1.74,4.62-2.72,6.89-.78,1.8-1.42,3.86-2.49,5.5-.61.93-1.66,1.37-2.27,2.28-.55.81-.61,1.8-.68,2.75-.04.54.8.54.84,0,.11-1.48.5-2.33,1.63-3.27.75-.62,1.26-1.34,1.67-2.21.8-1.7,1.53-3.43,2.26-5.16.92-2.16,1.72-4.36,2.57-6.54l-.62.25h0c.26.12.52.02.62-.25.95-2.6,3.95-3.92,6.48-2.66s3.23,4.25,1.91,6.59c-.1.18-.06.48.15.58h0c-.05-.19-.1-.38-.15-.57-1.14,2.11-2.34,4.19-3.41,6.34-.84,1.68-1.72,3.35-2.47,5.06-.41.93-.55,1.82-.51,2.82.04,1.38-.53,2.14-1.48,3.08-.39.38.21.98.6.6h0Z"/>
          </g>
          <g>
            <path class="cls-2" d="M202.94,30.51c-.25,3.17-1.43,6.19-2.04,9.31-7.6,16.39-15.21,32.78-22.81,49.17-.07.2-.13.41-.2.61-.45,1.45-.74,2.85-.92,4.19-.03.15-.05.3-.05.44,0,.03,0,.06-.01.09h.01c.02.79.48,1.54,1.24,1.89s1.62.22,2.24-.27h.01s.04-.04.06-.06c.11-.1.21-.21.3-.33.91-.99,1.79-2.12,2.6-3.4.12-.18.23-.37.34-.55,7.6-16.39,15.21-32.78,22.81-49.17,1.98-2.48,3.53-5.33,5.78-7.57"/>
            <path class="cls-3" d="M202.52,30.51c-.21,2.23-.83,4.38-1.4,6.54-.31,1.17-.52,2.35-1.01,3.45s-.98,2.11-1.46,3.16c-1.95,4.21-3.91,8.42-5.86,12.63-3.91,8.42-7.81,16.84-11.72,25.26-1.11,2.39-2.38,4.77-3.35,7.22-.69,1.75-1.01,3.68-1.24,5.55-.02.13.09.31.21.36-.37-.17.04.67.12.81.23.41.57.76.98.99s.87.35,1.34.33c.12,0,1.52-.3,1.06-.51.17.08.38.08.51-.07,1.19-1.28,2.32-2.65,3.21-4.16,1.14-1.92,1.95-4.11,2.89-6.14,1.99-4.29,3.98-8.57,5.96-12.86,3.94-8.5,7.88-16.99,11.82-25.49,1.05-2.27,2.01-4.49,3.47-6.52s2.79-4.13,4.55-5.92c.38-.39-.22-.98-.6-.6-1.35,1.37-2.46,2.92-3.56,4.49-.58.83-1.15,1.67-1.76,2.48-.68.91-1.1,1.91-1.58,2.94l-5.96,12.86c-3.94,8.5-7.88,16.99-11.82,25.49l-3.24,6.99c-1.02,2.19-2.33,4.06-3.98,5.84l.51-.07c-.12-.06-.21-.07-.34-.05-.1.01-.18.13-.26.15-.66.16-1.13.38-1.75.05-.66-.35-.81-.82-.94-1.52-.01-.06-.1-.13-.11-.19l-.09-.07c.2.39.28.35.25-.1.2-.41.17-1.13.26-1.6.11-.57.24-1.13.4-1.69.34-1.27.9-2.44,1.45-3.63,2.13-4.59,4.26-9.17,6.38-13.76,4.29-9.25,8.58-18.5,12.87-27.74l1.78-3.83c.55-1.18.87-2.2,1.18-3.45.63-2.54,1.41-5.03,1.66-7.65.05-.54-.79-.54-.84,0h0Z"/>
          </g>
          <g>
            <path class="cls-4" d="M214.76,44.53l-20.78-9.64,3.02-6.51c.77-1.65,2.72-2.37,4.37-1.6l14.8,6.87c1.65.77,2.37,2.72,1.6,4.37l-3.02,6.51Z"/>
            <path class="cls-3" d="M214.97,44.17c-6.06-2.81-12.13-5.63-18.19-8.44-.86-.4-1.73-.8-2.59-1.2l.15.58c.99-2.13,1.9-4.31,2.97-6.4,1.56-3.05,4.34-1.33,6.54-.31,2.84,1.32,5.69,2.64,8.53,3.96,1.93.9,5.43,1.8,5.28,4.48-.08,1.34-1.11,2.84-1.66,4.03s-1.07,2.31-1.61,3.47c-.23.49.5.92.73.43,1.02-2.2,2.15-4.37,3.06-6.61.77-1.9,0-3.93-1.81-4.86-.71-.36-1.45-.67-2.18-1.01l-9.39-4.36c-2.15-1-4.8-2.82-7.07-1.09-1.14.87-1.63,2.5-2.22,3.77-.63,1.37-1.27,2.73-1.9,4.1-.09.19-.07.47.15.58,6.06,2.81,12.13,5.63,18.19,8.44.86.4,1.73.8,2.59,1.2.49.23.92-.5.43-.73Z"/>
          </g>
          <g>
            <rect class="cls-4" x="202.4" y="26.33" width="4.65" height="25.26" rx="2.32" ry="2.32" transform="translate(83.23 208.27) rotate(-65.11)"/>
            <path class="cls-3" d="M213.3,45.04c-5.9-2.74-11.79-5.47-17.69-8.21-.31-.15-.64-.27-.95-.44-1.35-.73-1.69-2.7-.16-3.47,1.12-.57,2.43.33,3.44.8,3.6,1.67,7.2,3.34,10.79,5.01l5.08,2.36c.33.15.67.28.99.46,2.21,1.22.78,4.38-1.61,3.46-.51-.19-.73.62-.22.81,2.83,1.09,5.26-2.6,2.85-4.62-.84-.7-2.1-1.08-3.07-1.53l-12.75-5.91c-1.13-.52-2.25-1.08-3.39-1.57-2.32-1-4.96,1.33-3.67,3.74.6,1.12,1.97,1.53,3.05,2.03l5.88,2.73c3.67,1.7,7.33,3.4,11,5.1.49.23.92-.5.43-.73Z"/>
          </g>
        </g>
        <g>
          <path class="cls-2" d="M183.28,109.77c-.72-1.63-1.76-3.3-2.64-4.92-.62-1.03-1.45-2.91-2.18-3.3-.81-.38-1.34.69-1.74,1.33-.44.78-.88,1.58-1.32,2.37-1.42,2.7-3.56,5.43-2.96,8.62.58,3.71,4.66,6.03,8.09,4.38,3.13-1.42,4.18-5.42,2.77-8.42l-.02-.05Z"/>
          <path class="cls-3" d="M183.65,109.56c-.86-1.89-1.95-3.65-2.95-5.47-.5-.92-1.19-2.86-2.42-3.03-1.35-.18-2.15,2.01-2.66,2.91-.93,1.67-1.97,3.32-2.77,5.06-1.33,2.89-1.33,6.39,1.24,8.61,2.2,1.9,5.44,2.07,7.77.28,2.58-1.99,2.99-5.51,1.78-8.37-.21-.5-.94-.07-.73.43.95,2.24.74,4.97-1.01,6.78s-4.7,2.08-6.8.6c-2.46-1.73-2.79-4.84-1.71-7.47.57-1.39,1.4-2.66,2.12-3.98.35-.64.7-1.28,1.06-1.91.33-.58.63-1.32,1.1-1.81.66-.7,1.17.32,1.5.87.35.6.67,1.22,1.01,1.82.95,1.68,1.94,3.34,2.74,5.09.22.49.95.07.73-.43Z"/>
        </g>
      </g>
      <g>
        <g>
          <circle class="cls-2" cx="79.21" cy="154.39" r="10.92"/>
          <path class="cls-3" d="M89.71,154.39c-.06,4.4-2.79,8.41-6.97,9.89s-8.83.17-11.63-3.2-3.17-8.31-.92-12.07,6.71-5.76,11-4.93c4.94.95,8.45,5.33,8.52,10.32,0,.54.85.54.84,0-.06-4.68-2.92-8.92-7.32-10.61s-9.76-.3-12.81,3.43-3.39,8.93-.96,12.98,7.18,6.18,11.81,5.35c5.37-.97,9.21-5.76,9.29-11.16,0-.54-.84-.54-.84,0Z"/>
        </g>
        <g>
          <path class="cls-2" d="M79.21,143.47c6.03,0,10.92,4.89,10.92,10.92s-4.89,10.92-10.92,10.92"/>
          <path class="cls-3" d="M79.21,143.89c5.72.08,10.51,4.72,10.5,10.5s-4.77,10.42-10.5,10.5c-.54,0-.54.85,0,.84,4.68-.06,8.92-2.92,10.61-7.32s.34-9.67-3.32-12.72c-2.06-1.72-4.61-2.62-7.29-2.65-.54,0-.54.84,0,.84h0Z"/>
        </g>
        <path class="cls-3" d="M78.75,143.47v21.88c0,.54.84.54.84,0v-21.88c0-.54-.84-.54-.84,0h0Z"/>
      </g>
    </g>
  </g>
</svg>