<?xml version="1.0" encoding="UTF-8"?>
<svg id="Layer_2" data-name="Layer 2" xmlns="http://www.w3.org/2000/svg" viewBox="0 0 265.3 346.35">
  <defs>
    <style>
      .cls-1 {
        fill: none;
      }

      .cls-1, .cls-2, .cls-3, .cls-4 {
        stroke: #0e2731;
        stroke-miterlimit: 10;
        stroke-width: 1.5px;
      }

      .cls-2, .cls-5 {
        fill: #fff;
      }

      .cls-5, .cls-6 {
        opacity: .25;
      }

      .cls-3 {
        fill: #0e2731;
      }

      .cls-4, .cls-7 {
        fill: #449ac1;
      }
    </style>
  </defs>
  <g id="Layer_1-2" data-name="Layer 1">
    <g>
      <g class="cls-6">
        <g>
          <path class="cls-2" d="M254.41,224.73c.86,1.02,1.97,1.57,1.97,1.57,1.56.57,2.94.49,4.04.16,2.95-.89,3.6-4.45,3.86-5.86.59-3.21.47-8.43-2.64-15.71-1.46-3.43-7.04-14.97-9.28-14.31-1.37.4.91,5.83.31,16.68-.2,3.57-.99,14.24,1.73,17.47Z"/>
          <path class="cls-2" d="M10.9,224.73c-.86,1.02-1.97,1.57-1.97,1.57-1.56.57-2.94.49-4.04.16-2.95-.89-3.6-4.45-3.86-5.86-.59-3.21-.47-8.43,2.64-15.71,1.46-3.43,7.04-14.97,9.28-14.31,1.37.4-.91,5.83-.31,16.68.2,3.57.99,14.24-1.73,17.47Z"/>
          <path class="cls-2" d="M132.24,15.62c-6.13,2.32-14.36,5.84-23.58,11.05-5.82,3.29-30.28,17.56-52.02,45.06-25.45,32.18-33.14,64.72-38.43,88.27-5.15,22.93-12.38,55.56-2.75,95,4.31,17.66,8.85,36.25,24.75,54,21.23,23.7,49.1,30.69,59.62,33.19,13.23,3.14,24.65,3.58,32.62,3.38h.39c7.97.2,19.4-.24,32.62-3.38,10.52-2.49,38.39-9.48,59.62-33.19,15.9-17.75,20.44-36.34,24.75-54,9.63-39.44,2.4-72.07-2.75-95-5.29-23.55-12.98-56.09-38.43-88.27-21.74-27.49-46.2-41.77-52.02-45.06-9.22-5.21-17.45-8.73-23.58-11.05"/>
          <g>
            <path class="cls-3" d="M203.74,78.96c-.9-3.43-2.74-8.7-6.79-13.93-4.37-5.65-9.12-8.41-15.06-11.87-6.29-3.66-11.71-5.51-22.55-9.23-1.54-.53-4.1-1.38-4.19-1.17-.21.52,15.33,5.49,28.55,15.11,10.04,7.3,16.38,15.58,20.03,21.09"/>
            <path class="cls-3" d="M61.56,78.96c.9-3.43,2.74-8.7,6.79-13.93,4.37-5.65,9.12-8.41,15.06-11.87,6.29-3.66,11.71-5.51,22.55-9.23,1.54-.53,4.1-1.38,4.19-1.17.21.52-15.33,5.49-28.55,15.11-10.04,7.3-16.38,15.58-20.03,21.09"/>
          </g>
          <path class="cls-2" d="M108.92,25.15c1.61-3.23,3.55-5.23,4.75-6.49l.23-.24c3.13-3.28,5.68-7.05,7.89-11s6.26-6.68,10.86-6.68,8.62,2.67,10.86,6.68c2.21,3.96,4.76,7.72,7.89,11l.23.24c1.2,1.26,3.14,3.26,4.75,6.49,0,.01,0,.02.01.03.69,1.39,1.03,2.92,1.03,4.48v7.05c0,1.13-.1,2.27-.32,3.38-.02.1-.03.13-.03.13,0,0,0,.01,0,.02-.39,1.62-1.88,2.73-3.54,2.73h-41.76c-1.66,0-3.15-1.11-3.54-2.73,0,0,0-.01,0-.02,0,0,0-.03-.03-.13-.22-1.11-.32-2.25-.32-3.38v-7.05c0-1.55.34-3.09,1.03-4.48,0,0,0-.02.01-.03Z"/>
          <g>
            <path class="cls-1" d="M143.7,47.58c0-5.18,0-6.14.06-11.98,0-.65.05-1.34.12-2.05.4-3.71,1.69-6.74,2.95-8.95"/>
            <path class="cls-1" d="M121.6,47.58c0-5.18,0-6.14-.06-11.98,0-.65-.05-1.34-.12-2.05-.4-3.71-1.69-6.74-2.95-8.95"/>
          </g>
          <path class="cls-2" d="M132.65,37.89c-5.92,0-13.93,2-22.94,5.08-3.59,1.23-16.77,5.95-31.58,17.26-22.21,16.96-33.32,37.43-41.86,53.58-10.79,20.39-15.91,37.95-18.06,46.18-4.37,16.72-13.2,52.19-2.75,95,4.31,17.66,8.85,36.25,24.75,54,21.23,23.7,49.1,30.69,59.62,33.19,13.23,3.14,24.65,3.58,32.62,3.38h.39c7.97.2,19.4-.24,32.62-3.38,10.52-2.49,38.39-9.48,59.62-33.19,15.9-17.75,20.44-36.34,24.75-54,10.45-42.82,1.62-78.28-2.75-95-2.15-8.23-7.27-25.79-18.06-46.18-8.54-16.14-19.65-36.62-41.86-53.58-14.81-11.31-27.99-16.04-31.58-17.26-9.01-3.08-16.99-5.08-22.94-5.08"/>
        </g>
        <circle class="cls-7" cx="132.65" cy="85.21" r="9.1"/>
        <circle class="cls-7" cx="132.65" cy="320.46" r="9.1"/>
        <circle class="cls-7" cx="61.69" cy="106.53" r="9.1"/>
        <circle class="cls-7" cx="46.63" cy="167.04" r="9.1"/>
        <circle class="cls-7" cx="47.93" cy="277.13" r="9.1"/>
        <circle class="cls-7" cx="42.38" cy="222.24" r="9.1"/>
      </g>
      <g>
        <path class="cls-4" d="M201.84,73.45c-53.65,0-97.15,58.56-97.15,130.73,0,66.96,37.43,122.15,85.68,129.77h0c11.16-5.01,23.81-12.78,34.72-24.95,15.9-17.75,20.44-36.34,24.75-54,10.45-42.82,1.62-78.28-2.75-95-2.15-8.23-7.27-25.79-18.06-46.18-6.41-12.12-14.27-26.68-27.19-40.37"/>
        <circle class="cls-5" cx="132.65" cy="155.54" r="9.1"/>
        <circle class="cls-5" cx="132.65" cy="236.51" r="9.1"/>
        <circle class="cls-5" cx="203.61" cy="106.53" r="9.1"/>
        <circle class="cls-5" cx="218.67" cy="167.04" r="9.1"/>
        <circle class="cls-5" cx="217.38" cy="277.13" r="9.1"/>
        <circle class="cls-5" cx="222.92" cy="222.24" r="9.1"/>
      </g>
    </g>
  </g>
</svg>