<?xml version="1.0" encoding="UTF-8"?>
<svg id="Layer_2" data-name="Layer 2" xmlns="http://www.w3.org/2000/svg" viewBox="0 0 713.13 928.97">
  <defs>
    <style>
      .cls-1, .cls-2 {
        fill: #fff;
      }

      .cls-1, .cls-3, .cls-4, .cls-5 {
        stroke: #0e2731;
        stroke-miterlimit: 10;
        stroke-width: 4.02px;
      }

      .cls-3 {
        fill: none;
      }

      .cls-4 {
        fill: #0e2731;
      }

      .cls-5 {
        fill: #449ac1;
      }
    </style>
  </defs>
  <g id="Layer_1-2" data-name="Layer 1">
    <g>
      <g>
        <g>
          <path class="cls-1" d="M29.29,602.77c-2.31,2.74-5.29,4.2-5.29,4.2-4.21,1.54-7.9,1.32-10.87.43-7.92-2.39-9.68-11.94-10.37-15.71-1.58-8.61-1.26-22.62,7.09-42.13,3.93-9.19,18.93-40.14,24.94-38.38,3.68,1.08-2.46,15.63-.84,44.73.54,9.59,2.67,38.2-4.65,46.86Z"/>
          <path class="cls-1" d="M683.84,602.77c2.31,2.74,5.29,4.2,5.29,4.2,4.21,1.54,7.9,1.32,10.87.43,7.92-2.39,9.68-11.94,10.37-15.71,1.58-8.61,1.26-22.62-7.09-42.13-3.93-9.19-18.93-40.14-24.94-38.38-3.68,1.08,2.46,15.63.84,44.73-.54,9.59-2.67,38.2,4.65,46.86Z"/>
          <path class="cls-1" d="M357.66,41.9c16.47,6.22,38.6,15.66,63.39,29.63,15.64,8.82,81.39,47.11,139.83,120.86,68.41,86.32,89.07,173.58,103.3,236.76,13.86,61.5,33.28,149.02,7.39,254.81-11.59,47.36-23.79,97.23-66.53,144.83-57.08,63.58-131.99,82.32-160.27,89.01-35.56,8.41-66.26,9.59-87.69,9.05h-1.06c-21.43.54-52.13-.64-87.69-9.05-28.28-6.69-103.19-25.43-160.27-89.01-42.74-47.61-54.94-97.48-66.53-144.83-25.88-105.79-6.46-193.31,7.39-254.81,14.23-63.17,34.89-150.44,103.3-236.76,58.45-73.75,124.19-112.03,139.83-120.86,24.78-13.97,46.92-23.41,63.39-29.63"/>
          <g>
            <path class="cls-4" d="M165.47,211.8c2.41-9.21,7.36-23.35,18.24-37.37,11.75-15.14,24.52-22.56,40.48-31.83,16.9-9.81,31.47-14.79,60.62-24.74,4.15-1.42,11.03-3.71,11.26-3.15.57,1.39-41.22,14.74-76.75,40.53-26.99,19.59-44.04,41.78-53.85,56.56"/>
            <path class="cls-4" d="M547.66,211.8c-2.41-9.21-7.36-23.35-18.24-37.37-11.75-15.14-24.52-22.56-40.48-31.83-16.9-9.81-31.47-14.79-60.62-24.74-4.15-1.42-11.03-3.71-11.26-3.15-.57,1.39,41.22,14.74,76.75,40.53,26.99,19.59,44.04,41.78,53.85,56.56"/>
          </g>
          <path class="cls-1" d="M420.34,67.47c-4.33-8.67-9.55-14.03-12.77-17.41l-.61-.64c-8.41-8.81-15.26-18.9-21.22-29.52-6.02-10.74-16.84-17.9-29.18-17.9s-23.16,7.16-29.18,17.91c-5.95,10.62-12.81,20.71-21.22,29.51l-.61.64c-3.23,3.38-8.45,8.74-12.77,17.41-.01.03-.03.05-.04.08-1.85,3.73-2.76,7.84-2.76,12v18.9c0,3.04.28,6.08.86,9.07.05.28.07.36.07.36,0,.02,0,.04.01.06,1.05,4.33,5.04,7.32,9.51,7.32h112.25c4.47,0,8.46-2.99,9.51-7.32,0-.02,0-.04.01-.06,0,0,.02-.08.07-.35.58-2.99.86-6.03.86-9.07v-18.9c0-4.16-.91-8.28-2.76-12-.01-.03-.03-.05-.04-.08Z"/>
          <g>
            <path class="cls-3" d="M326.87,127.61c0-13.89,0-16.47-.16-32.13-.02-1.76-.12-3.59-.32-5.5-1.06-9.96-4.54-18.08-7.93-24"/>
            <path class="cls-3" d="M386.26,127.61c0-13.89,0-16.47.16-32.13.02-1.76.12-3.59.32-5.5,1.06-9.96,4.54-18.08,7.93-24"/>
          </g>
          <path class="cls-5" d="M356.57,101.63c15.92,0,37.44,5.36,61.66,13.62,9.65,3.29,45.07,15.97,84.89,46.31,59.7,45.49,89.55,100.41,112.52,143.71,29,54.69,42.76,101.78,48.55,123.87,11.75,44.85,35.49,139.97,7.39,254.81-11.59,47.36-23.79,97.23-66.53,144.83-57.08,63.58-131.99,82.32-160.27,89.01-35.56,8.41-66.26,9.59-87.69,9.05h-1.06c-21.43.54-52.13-.64-87.69-9.05-28.28-6.69-103.19-25.43-160.27-89.01-42.74-47.61-54.94-97.48-66.53-144.83-28.1-114.84-4.36-209.97,7.39-254.81,5.79-22.09,19.55-69.17,48.55-123.87,22.96-43.3,52.81-98.22,112.52-143.71,39.82-30.34,75.24-43.01,84.89-46.31,24.22-8.27,45.66-13.62,61.67-13.62"/>
        </g>
        <g>
          <g>
            <g>
              <ellipse class="cls-2" cx="356.56" cy="228.56" rx="24.47" ry="24.42"/>
              <ellipse class="cls-2" cx="356.56" cy="417.19" rx="24.47" ry="24.42"/>
            </g>
            <g>
              <ellipse class="cls-2" cx="356.56" cy="634.36" rx="24.47" ry="24.42"/>
              <ellipse class="cls-2" cx="356.56" cy="859.55" rx="24.47" ry="24.42"/>
            </g>
          </g>
          <g>
            <g>
              <ellipse class="cls-2" cx="165.82" cy="285.75" rx="24.47" ry="24.42"/>
              <ellipse class="cls-2" cx="125.34" cy="448.02" rx="24.47" ry="24.42"/>
              <ellipse class="cls-2" cx="128.82" cy="743.32" rx="24.47" ry="24.42"/>
              <ellipse class="cls-2" cx="113.91" cy="596.1" rx="24.47" ry="24.42"/>
            </g>
            <g>
              <ellipse class="cls-2" cx="547.31" cy="285.75" rx="24.47" ry="24.42"/>
              <ellipse class="cls-2" cx="587.79" cy="448.02" rx="24.47" ry="24.42"/>
              <ellipse class="cls-2" cx="584.31" cy="743.32" rx="24.47" ry="24.42"/>
              <ellipse class="cls-2" cx="599.22" cy="596.1" rx="24.47" ry="24.42"/>
            </g>
          </g>
        </g>
      </g>
      <path class="cls-3" d="M356.57,101.63c15.92,0,37.44,5.36,61.66,13.62,9.65,3.29,45.07,15.97,84.89,46.31,59.7,45.49,89.55,100.41,112.52,143.71,29,54.69,42.76,101.78,48.55,123.87,11.75,44.85,35.49,139.97,7.39,254.81-11.59,47.36-23.79,97.23-66.53,144.83-57.08,63.58-131.99,82.32-160.27,89.01-35.56,8.41-66.26,9.59-87.69,9.05h-1.06c-21.43.54-52.13-.64-87.69-9.05-28.28-6.69-103.19-25.43-160.27-89.01-42.74-47.61-54.94-97.48-66.53-144.83-28.1-114.84-4.36-209.97,7.39-254.81,5.79-22.09,19.55-69.17,48.55-123.87,22.96-43.3,52.81-98.22,112.52-143.71,39.82-30.34,75.24-43.01,84.89-46.31,24.22-8.27,45.66-13.62,61.67-13.62"/>
    </g>
  </g>
</svg>